<svg width="93" height="18" viewBox="0 0 93 18" fill="none" xmlns="http://www.w3.org/2000/svg">
<path d="M30.135 13.04V14H22.71V3.5H29.91V4.46H23.82V8.195H29.25V9.14H23.82V13.04H30.135ZM36.4545 13.52C36.2545 13.7 36.0045 13.84 35.7045 13.94C35.4145 14.03 35.1095 14.075 34.7895 14.075C34.0495 14.075 33.4795 13.875 33.0795 13.475C32.6795 13.075 32.4795 12.51 32.4795 11.78V7.01H31.0695V6.11H32.4795V4.385H33.5445V6.11H35.9445V7.01H33.5445V11.72C33.5445 12.19 33.6595 12.55 33.8895 12.8C34.1295 13.04 34.4695 13.16 34.9095 13.16C35.1295 13.16 35.3395 13.125 35.5395 13.055C35.7495 12.985 35.9295 12.885 36.0795 12.755L36.4545 13.52ZM42.4132 6.05C43.4032 6.05 44.1882 6.34 44.7682 6.92C45.3582 7.49 45.6532 8.325 45.6532 9.425V14H44.5882V9.53C44.5882 8.71 44.3832 8.085 43.9732 7.655C43.5632 7.225 42.9782 7.01 42.2182 7.01C41.3682 7.01 40.6932 7.265 40.1932 7.775C39.7032 8.275 39.4582 8.97 39.4582 9.86V14H38.3932V2.87H39.4582V7.49C39.7482 7.03 40.1482 6.675 40.6582 6.425C41.1682 6.175 41.7532 6.05 42.4132 6.05ZM55.4439 10.385H48.8439C48.9039 11.205 49.2189 11.87 49.7889 12.38C50.3589 12.88 51.0789 13.13 51.9489 13.13C52.4389 13.13 52.8889 13.045 53.2989 12.875C53.7089 12.695 54.0639 12.435 54.3639 12.095L54.9639 12.785C54.6139 13.205 54.1739 13.525 53.6439 13.745C53.1239 13.965 52.5489 14.075 51.9189 14.075C51.1089 14.075 50.3889 13.905 49.7589 13.565C49.1389 13.215 48.6539 12.735 48.3039 12.125C47.9539 11.515 47.7789 10.825 47.7789 10.055C47.7789 9.285 47.9439 8.595 48.2739 7.985C48.6139 7.375 49.0739 6.9 49.6539 6.56C50.2439 6.22 50.9039 6.05 51.6339 6.05C52.3639 6.05 53.0189 6.22 53.5989 6.56C54.1789 6.9 54.6339 7.375 54.9639 7.985C55.2939 8.585 55.4589 9.275 55.4589 10.055L55.4439 10.385ZM51.6339 6.965C50.8739 6.965 50.2339 7.21 49.7139 7.7C49.2039 8.18 48.9139 8.81 48.8439 9.59H54.4389C54.3689 8.81 54.0739 8.18 53.5539 7.7C53.0439 7.21 52.4039 6.965 51.6339 6.965ZM58.6466 7.655C58.8966 7.125 59.2666 6.725 59.7566 6.455C60.2566 6.185 60.8716 6.05 61.6016 6.05V7.085L61.3466 7.07C60.5166 7.07 59.8666 7.325 59.3966 7.835C58.9266 8.345 58.6916 9.06 58.6916 9.98V14H57.6266V6.11H58.6466V7.655ZM63.5299 6.11H64.5949V14H63.5299V6.11ZM64.0699 4.385C63.8499 4.385 63.6649 4.31 63.5149 4.16C63.3649 4.01 63.2899 3.83 63.2899 3.62C63.2899 3.42 63.3649 3.245 63.5149 3.095C63.6649 2.945 63.8499 2.87 64.0699 2.87C64.2899 2.87 64.4749 2.945 64.6249 3.095C64.7749 3.235 64.8499 3.405 64.8499 3.605C64.8499 3.825 64.7749 4.01 64.6249 4.16C64.4749 4.31 64.2899 4.385 64.0699 4.385ZM74.6682 6.11V14H73.6482V12.56C73.3682 13.04 72.9832 13.415 72.4932 13.685C72.0032 13.945 71.4432 14.075 70.8132 14.075C69.7832 14.075 68.9682 13.79 68.3682 13.22C67.7782 12.64 67.4832 11.795 67.4832 10.685V6.11H68.5482V10.58C68.5482 11.41 68.7532 12.04 69.1632 12.47C69.5732 12.9 70.1582 13.115 70.9182 13.115C71.7482 13.115 72.4032 12.865 72.8832 12.365C73.3632 11.855 73.6032 11.15 73.6032 10.25V6.11H74.6682ZM87.491 6.05C88.481 6.05 89.256 6.335 89.816 6.905C90.386 7.475 90.671 8.315 90.671 9.425V14H89.606V9.53C89.606 8.71 89.406 8.085 89.006 7.655C88.616 7.225 88.061 7.01 87.341 7.01C86.521 7.01 85.876 7.265 85.406 7.775C84.936 8.275 84.701 8.97 84.701 9.86V14H83.636V9.53C83.636 8.71 83.436 8.085 83.036 7.655C82.646 7.225 82.086 7.01 81.356 7.01C80.546 7.01 79.901 7.265 79.421 7.775C78.951 8.275 78.716 8.97 78.716 9.86V14H77.651V6.11H78.671V7.55C78.951 7.07 79.341 6.7 79.841 6.44C80.341 6.18 80.916 6.05 81.566 6.05C82.226 6.05 82.796 6.19 83.276 6.47C83.766 6.75 84.131 7.165 84.371 7.715C84.661 7.195 85.076 6.79 85.616 6.5C86.166 6.2 86.791 6.05 87.491 6.05Z" fill="white"/>
<path fill-rule="evenodd" clip-rule="evenodd" d="M17 9.5C17 14.1945 13.1945 18 8.5 18C3.80553 18 0 14.1945 0 9.5C0 4.80553 3.80553 1 8.5 1C13.1945 1 17 4.80553 17 9.5Z" fill="#5470DE"/>
<path fill-rule="evenodd" clip-rule="evenodd" d="M4.34446 9.1981L8.54259 11.6713L12.7407 9.1981L8.54259 2.23392L4.34446 9.1981ZM4.34446 10.0117L8.54258 15.9019L12.7407 10.0117L8.54258 12.4525L4.34446 10.0117Z" fill="white"/>
</svg>
