<svg width="519" height="181" viewBox="0 0 519 181" fill="none" xmlns="http://www.w3.org/2000/svg">
<g filter="url(#filter0_dd)">
<mask id="path-1-inside-1" fill="white">
<path fill-rule="evenodd" clip-rule="evenodd" d="M41 153C31.0589 153 23 144.941 23 135L23 41C23 31.0589 31.0589 23 41 23L473 23.0001C482.941 23.0001 491 31.059 491 41.0001L491 53.1854C491 59.6284 487.169 65.3164 483.149 70.3517C479.304 75.1678 477 81.3099 477 88.0001C477 94.6902 479.304 100.832 483.149 105.648C487.169 110.684 491 116.372 491 122.815L491 135C491 144.941 482.941 153 473 153L41 153Z"/>
</mask>
<path fill-rule="evenodd" clip-rule="evenodd" d="M41 153C31.0589 153 23 144.941 23 135L23 41C23 31.0589 31.0589 23 41 23L473 23.0001C482.941 23.0001 491 31.059 491 41.0001L491 53.1854C491 59.6284 487.169 65.3164 483.149 70.3517C479.304 75.1678 477 81.3099 477 88.0001C477 94.6902 479.304 100.832 483.149 105.648C487.169 110.684 491 116.372 491 122.815L491 135C491 144.941 482.941 153 473 153L41 153Z" fill="#15182B"/>
<path d="M483.149 105.648L481.977 106.584L483.149 105.648ZM483.149 70.3517L481.977 69.4158L483.149 70.3517ZM24.5 135C24.5 144.113 31.8873 151.5 41 151.5L41 154.5C30.2304 154.5 21.5 145.77 21.5 135L24.5 135ZM24.5 41L24.5 135L21.5 135L21.5 41L24.5 41ZM41 24.5C31.8873 24.5 24.5 31.8873 24.5 41L21.5 41C21.5 30.2304 30.2305 21.5 41 21.5L41 24.5ZM473 24.5001L41 24.5L41 21.5L473 21.5001L473 24.5001ZM489.5 41.0001C489.5 31.8874 482.113 24.5001 473 24.5001L473 21.5001C483.77 21.5001 492.5 30.2305 492.5 41.0001L489.5 41.0001ZM489.5 53.1854L489.5 41.0001L492.5 41.0001L492.5 53.1854L489.5 53.1854ZM484.321 71.2875C480.683 75.8455 478.5 81.6596 478.5 88.0001L475.5 88.0001C475.5 80.9602 477.926 74.4901 481.977 69.4158L484.321 71.2875ZM478.5 88.0001C478.5 94.3405 480.683 100.155 484.321 104.713L481.977 106.584C477.926 101.51 475.5 95.0399 475.5 88.0001L478.5 88.0001ZM489.5 135L489.5 122.815L492.5 122.815L492.5 135L489.5 135ZM473 151.5C482.113 151.5 489.5 144.113 489.5 135L492.5 135C492.5 145.77 483.77 154.5 473 154.5L473 151.5ZM41 151.5L473 151.5L473 154.5L41 154.5L41 151.5ZM484.321 104.713C488.34 109.746 492.5 115.801 492.5 122.815L489.5 122.815C489.5 116.943 485.998 111.621 481.977 106.584L484.321 104.713ZM492.5 53.1854C492.5 60.1995 488.34 66.2539 484.321 71.2875L481.977 69.4158C485.998 64.3789 489.5 59.0573 489.5 53.1854L492.5 53.1854Z" fill="#27292E" mask="url(#path-1-inside-1)"/>
<path d="M483.149 105.648L481.977 106.584L483.149 105.648ZM483.149 70.3517L481.977 69.4158L483.149 70.3517ZM24.5 135C24.5 144.113 31.8873 151.5 41 151.5L41 154.5C30.2304 154.5 21.5 145.77 21.5 135L24.5 135ZM24.5 41L24.5 135L21.5 135L21.5 41L24.5 41ZM41 24.5C31.8873 24.5 24.5 31.8873 24.5 41L21.5 41C21.5 30.2304 30.2305 21.5 41 21.5L41 24.5ZM473 24.5001L41 24.5L41 21.5L473 21.5001L473 24.5001ZM489.5 41.0001C489.5 31.8874 482.113 24.5001 473 24.5001L473 21.5001C483.77 21.5001 492.5 30.2305 492.5 41.0001L489.5 41.0001ZM489.5 53.1854L489.5 41.0001L492.5 41.0001L492.5 53.1854L489.5 53.1854ZM484.321 71.2875C480.683 75.8455 478.5 81.6596 478.5 88.0001L475.5 88.0001C475.5 80.9602 477.926 74.4901 481.977 69.4158L484.321 71.2875ZM478.5 88.0001C478.5 94.3405 480.683 100.155 484.321 104.713L481.977 106.584C477.926 101.51 475.5 95.0399 475.5 88.0001L478.5 88.0001ZM489.5 135L489.5 122.815L492.5 122.815L492.5 135L489.5 135ZM473 151.5C482.113 151.5 489.5 144.113 489.5 135L492.5 135C492.5 145.77 483.77 154.5 473 154.5L473 151.5ZM41 151.5L473 151.5L473 154.5L41 154.5L41 151.5ZM484.321 104.713C488.34 109.746 492.5 115.801 492.5 122.815L489.5 122.815C489.5 116.943 485.998 111.621 481.977 106.584L484.321 104.713ZM492.5 53.1854C492.5 60.1995 488.34 66.2539 484.321 71.2875L481.977 69.4158C485.998 64.3789 489.5 59.0573 489.5 53.1854L492.5 53.1854Z" fill="url(#paint0_linear)" mask="url(#path-1-inside-1)"/>
</g>
<defs>
<filter id="filter0_dd" x="0" y="0" width="519" height="181" filterUnits="userSpaceOnUse" color-interpolation-filters="sRGB">
<feFlood flood-opacity="0" result="BackgroundImageFix"/>
<feColorMatrix in="SourceAlpha" type="matrix" values="0 0 0 0 0 0 0 0 0 0 0 0 0 0 0 0 0 0 127 0"/>
<feOffset dx="8" dy="8"/>
<feGaussianBlur stdDeviation="10"/>
<feColorMatrix type="matrix" values="0 0 0 0 0.0180556 0 0 0 0 0.0253086 0 0 0 0 0.0833333 0 0 0 1 0"/>
<feBlend mode="normal" in2="BackgroundImageFix" result="effect1_dropShadow"/>
<feColorMatrix in="SourceAlpha" type="matrix" values="0 0 0 0 0 0 0 0 0 0 0 0 0 0 0 0 0 0 127 0"/>
<feOffset dx="-8" dy="-8"/>
<feGaussianBlur stdDeviation="7.5"/>
<feColorMatrix type="matrix" values="0 0 0 0 0.411736 0 0 0 0 0.457722 0 0 0 0 0.641667 0 0 0 0.12 0"/>
<feBlend mode="normal" in2="effect1_dropShadow" result="effect2_dropShadow"/>
<feBlend mode="normal" in="SourceGraphic" in2="effect2_dropShadow" result="shape"/>
</filter>
<linearGradient id="paint0_linear" x1="123" y1="-15" x2="312.307" y2="332.771" gradientUnits="userSpaceOnUse">
<stop offset="0.271129" stop-color="#2A2F48"/>
<stop offset="0.716944" stop-color="#0D1021"/>
</linearGradient>
</defs>
</svg>
