<svg width="345" height="263" viewBox="0 0 345 263" fill="none" xmlns="http://www.w3.org/2000/svg">
<g filter="url(#filter0_dd)">
<mask id="path-1-inside-1" fill="white">
<path fill-rule="evenodd" clip-rule="evenodd" d="M151.105 224.872C145.324 232.205 137.942 240 128.605 240L41 240C31.0589 240 23 231.941 23 222L23 41C23 31.0588 31.0589 23 41 23L304 23C313.941 23 322 31.0589 322 41L322 222C322 231.941 313.941 240 304 240L218.395 240C209.058 240 201.676 232.205 195.895 224.872C190.677 218.251 182.585 214 173.5 214C164.415 214 156.323 218.251 151.105 224.872Z"/>
</mask>
<path fill-rule="evenodd" clip-rule="evenodd" d="M151.105 224.872C145.324 232.205 137.942 240 128.605 240L41 240C31.0589 240 23 231.941 23 222L23 41C23 31.0588 31.0589 23 41 23L304 23C313.941 23 322 31.0589 322 41L322 222C322 231.941 313.941 240 304 240L218.395 240C209.058 240 201.676 232.205 195.895 224.872C190.677 218.251 182.585 214 173.5 214C164.415 214 156.323 218.251 151.105 224.872Z" fill="#15182B"/>
<path d="M304 240L304 238.5L304 240ZM218.395 240L218.395 241.5L218.395 240ZM41 238.5L128.605 238.5L128.605 241.5L41 241.5L41 238.5ZM24.5 222C24.5 231.113 31.8873 238.5 41 238.5L41 241.5C30.2304 241.5 21.5 232.77 21.5 222L24.5 222ZM24.5 41L24.5 222L21.5 222L21.5 41L24.5 41ZM41 24.5C31.8873 24.5 24.5 31.8873 24.5 41L21.5 41C21.5 30.2304 30.2305 21.5 41 21.5L41 24.5ZM304 24.5L41 24.5L41 21.5L304 21.5L304 24.5ZM320.5 41C320.5 31.8873 313.113 24.5 304 24.5L304 21.5C314.77 21.5 323.5 30.2304 323.5 41L320.5 41ZM320.5 222L320.5 41L323.5 41L323.5 222L320.5 222ZM304 238.5C313.113 238.5 320.5 231.113 320.5 222L323.5 222C323.5 232.77 314.77 241.5 304 241.5L304 238.5ZM218.395 238.5L304 238.5L304 241.5L218.395 241.5L218.395 238.5ZM194.717 225.8C189.771 219.525 182.106 215.5 173.5 215.5L173.5 212.5C183.064 212.5 191.583 216.977 197.074 223.943L194.717 225.8ZM173.5 215.5C164.894 215.5 157.229 219.525 152.283 225.8L149.926 223.943C155.417 216.977 163.936 212.5 173.5 212.5L173.5 215.5ZM218.395 241.5C213.288 241.5 208.794 239.364 204.899 236.376C201.012 233.394 197.628 229.493 194.717 225.8L197.074 223.943C199.943 227.583 203.141 231.246 206.725 233.996C210.3 236.738 214.166 238.5 218.395 238.5L218.395 241.5ZM128.605 238.5C132.834 238.5 136.7 236.738 140.275 233.996C143.859 231.246 147.057 227.583 149.926 223.943L152.283 225.8C149.372 229.493 145.988 233.394 142.101 236.376C138.206 239.364 133.712 241.5 128.605 241.5L128.605 238.5Z" fill="#27292E" mask="url(#path-1-inside-1)"/>
<path d="M304 240L304 238.5L304 240ZM218.395 240L218.395 241.5L218.395 240ZM41 238.5L128.605 238.5L128.605 241.5L41 241.5L41 238.5ZM24.5 222C24.5 231.113 31.8873 238.5 41 238.5L41 241.5C30.2304 241.5 21.5 232.77 21.5 222L24.5 222ZM24.5 41L24.5 222L21.5 222L21.5 41L24.5 41ZM41 24.5C31.8873 24.5 24.5 31.8873 24.5 41L21.5 41C21.5 30.2304 30.2305 21.5 41 21.5L41 24.5ZM304 24.5L41 24.5L41 21.5L304 21.5L304 24.5ZM320.5 41C320.5 31.8873 313.113 24.5 304 24.5L304 21.5C314.77 21.5 323.5 30.2304 323.5 41L320.5 41ZM320.5 222L320.5 41L323.5 41L323.5 222L320.5 222ZM304 238.5C313.113 238.5 320.5 231.113 320.5 222L323.5 222C323.5 232.77 314.77 241.5 304 241.5L304 238.5ZM218.395 238.5L304 238.5L304 241.5L218.395 241.5L218.395 238.5ZM194.717 225.8C189.771 219.525 182.106 215.5 173.5 215.5L173.5 212.5C183.064 212.5 191.583 216.977 197.074 223.943L194.717 225.8ZM173.5 215.5C164.894 215.5 157.229 219.525 152.283 225.8L149.926 223.943C155.417 216.977 163.936 212.5 173.5 212.5L173.5 215.5ZM218.395 241.5C213.288 241.5 208.794 239.364 204.899 236.376C201.012 233.394 197.628 229.493 194.717 225.8L197.074 223.943C199.943 227.583 203.141 231.246 206.725 233.996C210.3 236.738 214.166 238.5 218.395 238.5L218.395 241.5ZM128.605 238.5C132.834 238.5 136.7 236.738 140.275 233.996C143.859 231.246 147.057 227.583 149.926 223.943L152.283 225.8C149.372 229.493 145.988 233.394 142.101 236.376C138.206 239.364 133.712 241.5 128.605 241.5L128.605 238.5Z" fill="url(#paint0_linear)" mask="url(#path-1-inside-1)"/>
</g>
<defs>
<filter id="filter0_dd" x="0" y="-3.05176e-05" width="345" height="263" filterUnits="userSpaceOnUse" color-interpolation-filters="sRGB">
<feFlood flood-opacity="0" result="BackgroundImageFix"/>
<feColorMatrix in="SourceAlpha" type="matrix" values="0 0 0 0 0 0 0 0 0 0 0 0 0 0 0 0 0 0 127 0"/>
<feOffset dx="3" dy="3"/>
<feGaussianBlur stdDeviation="10"/>
<feColorMatrix type="matrix" values="0 0 0 0 0.0180556 0 0 0 0 0.0253086 0 0 0 0 0.0833333 0 0 0 1 0"/>
<feBlend mode="normal" in2="BackgroundImageFix" result="effect1_dropShadow"/>
<feColorMatrix in="SourceAlpha" type="matrix" values="0 0 0 0 0 0 0 0 0 0 0 0 0 0 0 0 0 0 127 0"/>
<feOffset dx="-8" dy="-8"/>
<feGaussianBlur stdDeviation="7.5"/>
<feColorMatrix type="matrix" values="0 0 0 0 0.411736 0 0 0 0 0.457722 0 0 0 0 0.641667 0 0 0 0.12 0"/>
<feBlend mode="normal" in2="effect1_dropShadow" result="effect2_dropShadow"/>
<feBlend mode="normal" in="SourceGraphic" in2="effect2_dropShadow" result="shape"/>
</filter>
<linearGradient id="paint0_linear" x1="124" y1="41.5" x2="212.54" y2="176.231" gradientUnits="userSpaceOnUse">
<stop offset="0.252418" stop-color="#2A2F48"/>
<stop offset="0.791302" stop-color="#0D1021"/>
</linearGradient>
</defs>
</svg>
