<svg  viewBox="0 0 519 181" fill="none" xmlns="http://www.w3.org/2000/svg">
<g filter="url(#filter0_dd)">
<mask id="path-1-inside-1" fill="white">
<path fill-rule="evenodd" clip-rule="evenodd" d="M473 23.0001C482.941 23.0001 491 31.0589 491 41.0001V135C491 144.941 482.941 153 473 153H41C31.0589 153 23 144.941 23 135V121.972C23 115.479 26.8953 109.763 30.9591 104.699C34.7388 99.9894 37 94.0088 37 87.5001C37 80.9913 34.7388 75.0107 30.9591 70.3009C26.8953 65.2371 23 59.5207 23 53.0278V41.0001C23 31.0589 31.0589 23.0001 41 23.0001H473Z"/>
</mask>
<path fill-rule="evenodd" clip-rule="evenodd" d="M473 23.0001C482.941 23.0001 491 31.0589 491 41.0001V135C491 144.941 482.941 153 473 153H41C31.0589 153 23 144.941 23 135V121.972C23 115.479 26.8953 109.763 30.9591 104.699C34.7388 99.9894 37 94.0088 37 87.5001C37 80.9913 34.7388 75.0107 30.9591 70.3009C26.8953 65.2371 23 59.5207 23 53.0278V41.0001C23 31.0589 31.0589 23.0001 41 23.0001H473Z" fill="#15182B"/>
<path d="M30.9591 70.3009L32.129 69.3621L30.9591 70.3009ZM489.5 41.0001C489.5 31.8874 482.113 24.5001 473 24.5001V21.5001C483.77 21.5001 492.5 30.2305 492.5 41.0001H489.5ZM489.5 135V41.0001H492.5V135H489.5ZM473 151.5C482.113 151.5 489.5 144.113 489.5 135H492.5C492.5 145.77 483.77 154.5 473 154.5V151.5ZM41 151.5H473V154.5H41V151.5ZM24.5 135C24.5 144.113 31.8873 151.5 41 151.5V154.5C30.2304 154.5 21.5 145.77 21.5 135H24.5ZM24.5 121.972V135H21.5V121.972H24.5ZM29.7893 103.76C33.363 99.3072 35.5 93.6552 35.5 87.5001H38.5C38.5 94.3624 36.1146 100.672 32.129 105.638L29.7893 103.76ZM35.5 87.5001C35.5 81.3449 33.363 75.6929 29.7893 71.2398L32.129 69.3621C36.1146 74.3285 38.5 80.6378 38.5 87.5001H35.5ZM24.5 41.0001V53.0278H21.5V41.0001H24.5ZM41 24.5001C31.8873 24.5001 24.5 31.8874 24.5 41.0001H21.5C21.5 30.2305 30.2305 21.5001 41 21.5001V24.5001ZM473 24.5001H41V21.5001H473V24.5001ZM29.7893 71.2398C25.7301 66.1817 21.5 60.0963 21.5 53.0278H24.5C24.5 58.945 28.0605 64.2925 32.129 69.3621L29.7893 71.2398ZM21.5 121.972C21.5 114.904 25.7301 108.818 29.7893 103.76L32.129 105.638C28.0605 110.708 24.5 116.055 24.5 121.972H21.5Z" fill="#27292E" mask="url(#path-1-inside-1)"/>
<path d="M30.9591 70.3009L32.129 69.3621L30.9591 70.3009ZM489.5 41.0001C489.5 31.8874 482.113 24.5001 473 24.5001V21.5001C483.77 21.5001 492.5 30.2305 492.5 41.0001H489.5ZM489.5 135V41.0001H492.5V135H489.5ZM473 151.5C482.113 151.5 489.5 144.113 489.5 135H492.5C492.5 145.77 483.77 154.5 473 154.5V151.5ZM41 151.5H473V154.5H41V151.5ZM24.5 135C24.5 144.113 31.8873 151.5 41 151.5V154.5C30.2304 154.5 21.5 145.77 21.5 135H24.5ZM24.5 121.972V135H21.5V121.972H24.5ZM29.7893 103.76C33.363 99.3072 35.5 93.6552 35.5 87.5001H38.5C38.5 94.3624 36.1146 100.672 32.129 105.638L29.7893 103.76ZM35.5 87.5001C35.5 81.3449 33.363 75.6929 29.7893 71.2398L32.129 69.3621C36.1146 74.3285 38.5 80.6378 38.5 87.5001H35.5ZM24.5 41.0001V53.0278H21.5V41.0001H24.5ZM41 24.5001C31.8873 24.5001 24.5 31.8874 24.5 41.0001H21.5C21.5 30.2305 30.2305 21.5001 41 21.5001V24.5001ZM473 24.5001H41V21.5001H473V24.5001ZM29.7893 71.2398C25.7301 66.1817 21.5 60.0963 21.5 53.0278H24.5C24.5 58.945 28.0605 64.2925 32.129 69.3621L29.7893 71.2398ZM21.5 121.972C21.5 114.904 25.7301 108.818 29.7893 103.76L32.129 105.638C28.0605 110.708 24.5 116.055 24.5 121.972H21.5Z" fill="url(#paint0_linear)" mask="url(#path-1-inside-1)"/>
</g>
<defs>
<filter id="filter0_dd" x="0" y="6.10352e-05" width="519" height="181" filterUnits="userSpaceOnUse" color-interpolation-filters="sRGB">
<feFlood flood-opacity="0" result="BackgroundImageFix"/>
<feColorMatrix in="SourceAlpha" type="matrix" values="0 0 0 0 0 0 0 0 0 0 0 0 0 0 0 0 0 0 127 0"/>
<feOffset dx="8" dy="8"/>
<feGaussianBlur stdDeviation="10"/>
<feColorMatrix type="matrix" values="0 0 0 0 0.0180556 0 0 0 0 0.0253086 0 0 0 0 0.0833333 0 0 0 1 0"/>
<feBlend mode="normal" in2="BackgroundImageFix" result="effect1_dropShadow"/>
<feColorMatrix in="SourceAlpha" type="matrix" values="0 0 0 0 0 0 0 0 0 0 0 0 0 0 0 0 0 0 127 0"/>
<feOffset dx="-8" dy="-8"/>
<feGaussianBlur stdDeviation="7.5"/>
<feColorMatrix type="matrix" values="0 0 0 0 0.411736 0 0 0 0 0.457722 0 0 0 0 0.641667 0 0 0 0.12 0"/>
<feBlend mode="normal" in2="effect1_dropShadow" result="effect2_dropShadow"/>
<feBlend mode="normal" in="SourceGraphic" in2="effect2_dropShadow" result="shape"/>
</filter>
<linearGradient id="paint0_linear" x1="-6.49997" y1="-17.5" x2="244.365" y2="447.901" gradientUnits="userSpaceOnUse">
<stop offset="0.334813" stop-color="#2A2F48"/>
<stop offset="0.656655" stop-color="#0D1021"/>
</linearGradient>
</defs>
</svg>
