<svg width="350" height="268" viewBox="0 0 350 268" fill="none" xmlns="http://www.w3.org/2000/svg">
<g filter="url(#filter0_dd)">
<mask id="path-1-inside-1" fill="white">
<path fill-rule="evenodd" clip-rule="evenodd" d="M41 240C31.0589 240 23 231.941 23 222L23 41C23 31.0588 31.0589 23 41 23L128.605 23C137.942 23 145.324 30.7954 151.105 38.1284C156.323 44.7494 164.415 49 173.5 49C182.585 49 190.677 44.7494 195.895 38.1284C201.676 30.7954 209.058 23 218.395 23L304 23C313.941 23 322 31.0589 322 41L322 222C322 231.941 313.941 240 304 240L41 240Z"/>
</mask>
<path fill-rule="evenodd" clip-rule="evenodd" d="M41 240C31.0589 240 23 231.941 23 222L23 41C23 31.0588 31.0589 23 41 23L128.605 23C137.942 23 145.324 30.7954 151.105 38.1284C156.323 44.7494 164.415 49 173.5 49C182.585 49 190.677 44.7494 195.895 38.1284C201.676 30.7954 209.058 23 218.395 23L304 23C313.941 23 322 31.0589 322 41L322 222C322 231.941 313.941 240 304 240L41 240Z" fill="#15182B"/>
<path d="M195.895 38.1284L194.717 37.1998L195.895 38.1284ZM24.5 222C24.5 231.113 31.8873 238.5 41 238.5L41 241.5C30.2304 241.5 21.5 232.77 21.5 222L24.5 222ZM24.5 41L24.5 222L21.5 222L21.5 41L24.5 41ZM41 24.5C31.8873 24.5 24.5 31.8873 24.5 41L21.5 41C21.5 30.2304 30.2305 21.5 41 21.5L41 24.5ZM128.605 24.5L41 24.5L41 21.5L128.605 21.5L128.605 24.5ZM152.283 37.1998C157.229 43.4755 164.894 47.5 173.5 47.5L173.5 50.5C163.936 50.5 155.417 46.0232 149.926 39.0569L152.283 37.1998ZM173.5 47.5C182.106 47.5 189.771 43.4755 194.717 37.1998L197.074 39.057C191.583 46.0232 183.064 50.5 173.5 50.5L173.5 47.5ZM304 24.5L218.395 24.5L218.395 21.5L304 21.5L304 24.5ZM320.5 41C320.5 31.8873 313.113 24.5 304 24.5L304 21.5C314.77 21.5 323.5 30.2304 323.5 41L320.5 41ZM320.5 222L320.5 41L323.5 41L323.5 222L320.5 222ZM304 238.5C313.113 238.5 320.5 231.113 320.5 222L323.5 222C323.5 232.77 314.77 241.5 304 241.5L304 238.5ZM41 238.5L304 238.5L304 241.5L41 241.5L41 238.5ZM194.717 37.1998C197.628 33.5071 201.012 29.606 204.899 26.6242C208.794 23.6361 213.288 21.5 218.395 21.5L218.395 24.5C214.166 24.5 210.3 26.2616 206.725 29.0045C203.141 31.7536 199.943 35.4167 197.074 39.057L194.717 37.1998ZM128.605 21.5C133.712 21.5 138.206 23.6361 142.101 26.6242C145.988 29.606 149.372 33.5071 152.283 37.1998L149.926 39.0569C147.057 35.4167 143.859 31.7536 140.275 29.0045C136.7 26.2616 132.834 24.5 128.605 24.5L128.605 21.5Z" fill="#27292E" mask="url(#path-1-inside-1)"/>
<path d="M195.895 38.1284L194.717 37.1998L195.895 38.1284ZM24.5 222C24.5 231.113 31.8873 238.5 41 238.5L41 241.5C30.2304 241.5 21.5 232.77 21.5 222L24.5 222ZM24.5 41L24.5 222L21.5 222L21.5 41L24.5 41ZM41 24.5C31.8873 24.5 24.5 31.8873 24.5 41L21.5 41C21.5 30.2304 30.2305 21.5 41 21.5L41 24.5ZM128.605 24.5L41 24.5L41 21.5L128.605 21.5L128.605 24.5ZM152.283 37.1998C157.229 43.4755 164.894 47.5 173.5 47.5L173.5 50.5C163.936 50.5 155.417 46.0232 149.926 39.0569L152.283 37.1998ZM173.5 47.5C182.106 47.5 189.771 43.4755 194.717 37.1998L197.074 39.057C191.583 46.0232 183.064 50.5 173.5 50.5L173.5 47.5ZM304 24.5L218.395 24.5L218.395 21.5L304 21.5L304 24.5ZM320.5 41C320.5 31.8873 313.113 24.5 304 24.5L304 21.5C314.77 21.5 323.5 30.2304 323.5 41L320.5 41ZM320.5 222L320.5 41L323.5 41L323.5 222L320.5 222ZM304 238.5C313.113 238.5 320.5 231.113 320.5 222L323.5 222C323.5 232.77 314.77 241.5 304 241.5L304 238.5ZM41 238.5L304 238.5L304 241.5L41 241.5L41 238.5ZM194.717 37.1998C197.628 33.5071 201.012 29.606 204.899 26.6242C208.794 23.6361 213.288 21.5 218.395 21.5L218.395 24.5C214.166 24.5 210.3 26.2616 206.725 29.0045C203.141 31.7536 199.943 35.4167 197.074 39.057L194.717 37.1998ZM128.605 21.5C133.712 21.5 138.206 23.6361 142.101 26.6242C145.988 29.606 149.372 33.5071 152.283 37.1998L149.926 39.0569C147.057 35.4167 143.859 31.7536 140.275 29.0045C136.7 26.2616 132.834 24.5 128.605 24.5L128.605 21.5Z" fill="url(#paint0_linear)" mask="url(#path-1-inside-1)"/>
</g>
<defs>
<filter id="filter0_dd" x="0" y="-4.57764e-05" width="350" height="268" filterUnits="userSpaceOnUse" color-interpolation-filters="sRGB">
<feFlood flood-opacity="0" result="BackgroundImageFix"/>
<feColorMatrix in="SourceAlpha" type="matrix" values="0 0 0 0 0 0 0 0 0 0 0 0 0 0 0 0 0 0 127 0"/>
<feOffset dx="8" dy="8"/>
<feGaussianBlur stdDeviation="10"/>
<feColorMatrix type="matrix" values="0 0 0 0 0.0180556 0 0 0 0 0.0253086 0 0 0 0 0.0833333 0 0 0 1 0"/>
<feBlend mode="normal" in2="BackgroundImageFix" result="effect1_dropShadow"/>
<feColorMatrix in="SourceAlpha" type="matrix" values="0 0 0 0 0 0 0 0 0 0 0 0 0 0 0 0 0 0 127 0"/>
<feOffset dx="-8" dy="-8"/>
<feGaussianBlur stdDeviation="7.5"/>
<feColorMatrix type="matrix" values="0 0 0 0 0.411736 0 0 0 0 0.457722 0 0 0 0 0.641667 0 0 0 0.12 0"/>
<feBlend mode="normal" in2="effect1_dropShadow" result="effect2_dropShadow"/>
<feBlend mode="normal" in="SourceGraphic" in2="effect2_dropShadow" result="shape"/>
</filter>
<linearGradient id="paint0_linear" x1="92" y1="18" x2="171.389" y2="307.002" gradientUnits="userSpaceOnUse">
<stop offset="0.386156" stop-color="#2A2F48"/>
<stop offset="0.656655" stop-color="#0D1021"/>
</linearGradient>
</defs>
</svg>
