<svg width="422" height="40" viewBox="0 0 422 40" fill="none" xmlns="http://www.w3.org/2000/svg">
<path d="M12.8027 23.4512C16.1921 24.1562 18.6908 25.1273 20.2988 26.3643C21.8945 27.6136 22.6924 29.333 22.6924 31.5225C22.6924 34.0583 21.709 36.0189 19.7422 37.4043C17.763 38.8021 15.1592 39.501 11.9307 39.501C10.0752 39.501 8.08984 39.1732 5.97461 38.5176C3.77279 37.862 1.97298 37.0703 0.575195 36.1426L2.39355 32.3574C5.38704 34.3118 8.60319 35.2829 12.042 35.2705C13.6253 35.2705 14.9613 34.9613 16.0498 34.3428C17.126 33.7367 17.6641 32.8831 17.6641 31.7822C17.6641 30.8421 17.194 30.069 16.2539 29.4629C15.3138 28.8568 13.6686 28.3001 11.3184 27.793C7.99089 27.0755 5.51074 26.0859 3.87793 24.8242C2.25749 23.5749 1.44727 21.7998 1.44727 19.499C1.44727 17.2106 2.44922 15.3675 4.45312 13.9697C6.44466 12.5967 9.03613 11.9102 12.2275 11.9102C15.5179 11.9102 18.5732 12.708 21.3936 14.3037L20.0205 18.3301C17.4847 16.8828 14.8376 16.1592 12.0791 16.1592C10.2607 16.1592 8.86296 16.4808 7.88574 17.124C6.90853 17.7673 6.41992 18.5465 6.41992 19.4619C6.41992 20.4144 6.90234 21.1999 7.86719 21.8184C8.81966 22.4245 10.4648 22.9688 12.8027 23.4512ZM36.8311 23.7295H36.9424L43.9004 12.3926H49.4854L39.2246 28.999V39H34.4375V28.8506L24.3252 12.3926H29.9102L36.8311 23.7295ZM56.3506 20H56.1836V39H51.3965V12.3926H57.5566L65.7764 31.0957H65.8877L74.0889 12.3926H80.249V39H75.4619V20H75.3135L67.1309 39H64.5146L56.3506 20ZM102.682 24.8242V24.9727C104.339 25.4551 105.663 26.2839 106.652 27.459C107.63 28.6341 108.118 30.0381 108.118 31.6709C108.118 33.7985 107.271 35.5488 105.576 36.9219C103.882 38.3073 101.723 39 99.1006 39H85.5742V12.3926H98.3027C100.839 12.3926 102.898 13.0234 104.481 14.2852C106.065 15.5716 106.856 17.223 106.856 19.2393C106.856 21.8245 105.465 23.6862 102.682 24.8242ZM90.3613 34.751H98.8779C100.189 34.751 101.265 34.4046 102.106 33.7119C102.948 33.0192 103.368 32.1348 103.368 31.0586C103.368 29.9701 102.954 29.0856 102.125 28.4053C101.296 27.7373 100.214 27.4033 98.8779 27.4033H90.3613V34.751ZM97.8574 16.6602H90.3613V23.7295H97.8574C99.0697 23.7295 100.072 23.3893 100.863 22.709C101.643 22.041 102.032 21.1875 102.032 20.1484C102.032 19.1094 101.643 18.2682 100.863 17.625C100.072 16.9818 99.0697 16.6602 97.8574 16.6602ZM117.34 39H112.553V12.3926H117.34V39ZM121.7 25.6963C121.7 21.7008 122.98 18.4043 125.541 15.8066C128.102 13.209 131.336 11.9102 135.245 11.9102C139.142 11.9102 142.364 13.2028 144.912 15.7881C147.448 18.361 148.716 21.6637 148.716 25.6963C148.716 29.7412 147.448 33.0501 144.912 35.623C142.364 38.2083 139.142 39.501 135.245 39.501C131.336 39.501 128.102 38.2021 125.541 35.6045C122.98 33.0068 121.7 29.7041 121.7 25.6963ZM128.974 32.4502C130.606 34.2314 132.691 35.1221 135.227 35.1221C137.762 35.1221 139.847 34.2314 141.479 32.4502C143.112 30.6937 143.929 28.4424 143.929 25.6963C143.929 22.9626 143.112 20.7051 141.479 18.9238C139.847 17.1549 137.762 16.2705 135.227 16.2705C132.691 16.2705 130.606 17.1549 128.974 18.9238C127.341 20.7051 126.524 22.9626 126.524 25.6963C126.524 28.43 127.341 30.6813 128.974 32.4502ZM163.912 23.4512C167.301 24.1562 169.8 25.1273 171.408 26.3643C173.004 27.6136 173.802 29.333 173.802 31.5225C173.802 34.0583 172.818 36.0189 170.852 37.4043C168.872 38.8021 166.269 39.501 163.04 39.501C161.185 39.501 159.199 39.1732 157.084 38.5176C154.882 37.862 153.082 37.0703 151.685 36.1426L153.503 32.3574C156.496 34.3118 159.713 35.2829 163.151 35.2705C164.735 35.2705 166.071 34.9613 167.159 34.3428C168.235 33.7367 168.773 32.8831 168.773 31.7822C168.773 30.8421 168.303 30.069 167.363 29.4629C166.423 28.8568 164.778 28.3001 162.428 27.793C159.1 27.0755 156.62 26.0859 154.987 24.8242C153.367 23.5749 152.557 21.7998 152.557 19.499C152.557 17.2106 153.559 15.3675 155.562 13.9697C157.554 12.5967 160.146 11.9102 163.337 11.9102C166.627 11.9102 169.683 12.708 172.503 14.3037L171.13 18.3301C168.594 16.8828 165.947 16.1592 163.188 16.1592C161.37 16.1592 159.972 16.4808 158.995 17.124C158.018 17.7673 157.529 18.5465 157.529 19.4619C157.529 20.4144 158.012 21.1999 158.977 21.8184C159.929 22.4245 161.574 22.9688 163.912 23.4512ZM276.418 35.1221C277.84 35.1221 279.269 34.8994 280.704 34.4541C282.139 34.0088 283.333 33.446 284.285 32.7656L285.083 37.1074C282.659 38.7031 279.733 39.501 276.307 39.501C272.002 39.501 268.489 38.2516 265.768 35.7529C263.034 33.2419 261.667 29.9639 261.667 25.9189C261.667 21.874 263.028 18.528 265.749 15.8809C268.47 13.2337 271.99 11.9102 276.307 11.9102C279.251 11.9102 281.91 12.541 284.285 13.8027L283.061 18.2188C281.057 16.9323 278.793 16.2829 276.27 16.2705C273.301 16.2705 270.926 17.1921 269.145 19.0352C267.351 20.8783 266.454 23.1729 266.454 25.9189C266.454 28.7021 267.382 30.9287 269.237 32.5986C271.068 34.2809 273.462 35.1221 276.418 35.1221ZM293.191 23.6553H306.606V12.3926H311.394V39H306.606V28.2383H293.191V39H288.404V12.3926H293.191V23.6553ZM314.103 39L325.087 12.3926H330.375L341.304 39H335.886L333.975 33.9531H321.469L319.576 39H314.103ZM327.777 17.9775H327.629L322.916 30.1123H332.49L327.777 17.9775ZM367.058 12.3926V39H362.92L348.985 20.9092H348.818V39H344.031V12.3926H348.188L362.159 30.5205H362.271V12.3926H367.058ZM391.661 28.1641H385.315V24.2861H396.448V36.1426C393.195 38.3568 389.75 39.4762 386.113 39.501C381.722 39.501 378.184 38.2578 375.5 35.7715C372.791 33.2852 371.437 30.0133 371.437 25.9561C371.437 21.9111 372.81 18.5589 375.556 15.8994C378.289 13.2399 381.809 11.9102 386.113 11.9102C389.651 11.9102 392.614 12.6029 395.001 13.9883C395.001 14.0254 394.754 14.7119 394.259 16.0479C393.764 17.3838 393.517 18.0827 393.517 18.1445C391.513 16.9199 389.107 16.2952 386.299 16.2705C383.342 16.2705 380.93 17.1921 379.062 19.0352C377.195 20.8906 376.261 23.2038 376.261 25.9746C376.261 28.7083 377.176 30.9163 379.007 32.5986C380.813 34.2809 383.169 35.1221 386.076 35.1221C388.266 35.1221 390.127 34.6025 391.661 33.5635V28.1641ZM420.458 27.9414H405.744V34.6211H421.979V39H400.957V12.3926H421.59V16.7715H405.744V24.0264H420.458V27.9414Z" fill="white"/>
<path d="M217.26 22.9941H195.963V32.6621H219.462V39H189.035V0.489258H218.898V6.82715H195.963V17.3276H217.26V22.9941ZM250.695 0.489258H258.993L245.968 19.2612L259.611 38.624H251.312L240.973 24.1489H240.785L230.5 38.624H222.201L235.79 19.2612L222.765 0.489258H231.063L240.785 14.3467H240.973L250.695 0.489258Z" fill="#FAE54D"/>
</svg>
