<svg width="24" height="24" viewBox="0 0 24 24" fill="none" xmlns="http://www.w3.org/2000/svg">
<path d="M18.2225 15.6841L18.1934 15.8349C18.1391 16.1072 17.992 16.3522 17.7772 16.5282C17.5625 16.7042 17.2933 16.8003 17.0157 16.8001H6.59968V13.8223C6.59924 13.6629 6.53793 13.5096 6.42825 13.3938C6.37364 13.3357 6.30805 13.289 6.23529 13.2564C6.16253 13.2238 6.08403 13.206 6.00433 13.2039C5.92463 13.2018 5.84531 13.2156 5.77095 13.2443C5.69659 13.2731 5.62867 13.3163 5.57111 13.3715L0.884252 17.9229L0.856824 17.9555C0.688837 18.1364 0.598073 18.3758 0.603835 18.6226C0.609598 18.8695 0.711433 19.1043 0.887681 19.2772L5.56768 23.8286C5.68028 23.939 5.83176 24.0005 5.9894 24.0001C6.07044 23.9992 6.15052 23.9823 6.22505 23.9505C6.29958 23.9186 6.36711 23.8724 6.42378 23.8145C6.48045 23.7565 6.52516 23.688 6.55534 23.6128C6.58552 23.5375 6.60059 23.4571 6.59968 23.3761V20.4001H17.9997C18.9545 20.4001 19.8701 20.0208 20.5453 19.3456C21.2204 18.6705 21.5997 17.7548 21.5997 16.8001V16.0183C21.5997 15.7944 21.5555 15.5727 21.4698 15.3659C21.3841 15.159 21.2584 14.9711 21.1 14.8128C20.9416 14.6546 20.7535 14.5291 20.5466 14.4436C20.3397 14.358 20.1179 14.3141 19.894 14.3143C19.5 14.3142 19.1181 14.4506 18.8134 14.7004C18.5086 14.9501 18.2998 15.2977 18.2225 15.6841Z" fill="white" fill-opacity="0.83"/>
<path d="M5.77701 8.31435L5.80616 8.16349C5.86085 7.89152 6.00808 7.6469 6.2228 7.47125C6.43752 7.2956 6.70646 7.19977 6.98387 7.20006H17.3999V10.1761C17.4004 10.336 17.4617 10.4898 17.5713 10.6063C17.6259 10.6645 17.6915 10.7112 17.7644 10.7438C17.8372 10.7764 17.9158 10.7941 17.9956 10.7961C18.0753 10.798 18.1547 10.784 18.229 10.755C18.3033 10.7259 18.3711 10.6824 18.4284 10.6269L23.1119 6.0772L23.1427 6.04463C23.3107 5.86369 23.4015 5.62434 23.3957 5.37751C23.39 5.13067 23.2881 4.89583 23.1119 4.72292L18.4319 0.17149C18.319 0.0616362 18.1677 0.000137216 18.0102 6.10352e-05C17.9292 0.000732595 17.8492 0.0173744 17.7746 0.0490328C17.7001 0.0806912 17.6326 0.126744 17.5759 0.184552C17.5192 0.24236 17.4745 0.310787 17.4443 0.385912C17.414 0.461037 17.399 0.541383 17.3999 0.622347V3.60006H5.99987C5.04509 3.60006 4.12942 3.97935 3.45429 4.65448C2.77916 5.32961 2.39987 6.24528 2.39987 7.20006V7.98006C2.39987 8.43472 2.58048 8.87075 2.90197 9.19224C3.22347 9.51373 3.6595 9.69435 4.11416 9.69435C4.50761 9.69009 4.88762 9.55062 5.1904 9.29934C5.49318 9.04806 5.70031 8.70027 5.77701 8.31435Z" fill="white" fill-opacity="0.83"/>
</svg>
