<svg width="688" height="188" viewBox="0 0 688 188" fill="none" xmlns="http://www.w3.org/2000/svg">
<g opacity="0.55">
<mask id="mask0" mask-type="alpha" maskUnits="userSpaceOnUse" x="0" y="0" width="688" height="188">
<rect width="688" height="188" rx="12.3" fill="#C4C4C4"/>
</mask>
<g mask="url(#mask0)">
<g clip-path="url(#clip0)">
<path d="M518.919 116.267L516.14 155.355C520.116 155.355 521.838 153.647 523.903 151.596L542.544 133.781L581.17 162.068C588.254 166.016 593.245 163.937 595.156 155.551L620.51 36.7471L620.517 36.7401C622.764 26.2681 616.73 22.1731 609.828 24.7421L460.798 81.7991C450.627 85.7471 450.781 91.4171 459.069 93.9861L497.17 105.837L585.671 50.4601C589.836 47.7021 593.623 49.2281 590.508 51.9861L518.919 116.267Z" fill="black"/>
</g>
<g clip-path="url(#clip1)">
<path d="M383.959 157.133L382.57 176.677C384.558 176.677 385.419 175.824 386.451 174.798L395.772 165.89L415.085 180.034C418.627 182.008 421.122 180.968 422.078 176.775L434.755 117.373L434.758 117.37C435.882 112.134 432.865 110.086 429.414 111.371L354.899 139.899C349.813 141.873 349.89 144.708 354.034 145.993L373.085 151.918L417.335 124.23C419.418 122.851 421.311 123.614 419.754 124.993L383.959 157.133Z" fill="black"/>
</g>
<g clip-path="url(#clip2)">
<path d="M365.581 39.7898L364.671 52.5865C365.973 52.5865 366.536 52.0273 367.212 51.3558L373.315 45.5235L385.96 54.7842C388.28 56.0767 389.914 55.396 390.539 52.6506L398.84 13.7565L398.842 13.7542C399.577 10.3258 397.602 8.9852 395.342 9.82624L346.553 28.5056C343.223 29.7981 343.274 31.6544 345.987 32.4954L358.46 36.3752L387.434 18.2458C388.797 17.3429 390.037 17.8425 389.017 18.7454L365.581 39.7898Z" fill="black"/>
</g>
<g clip-path="url(#clip3)">
<path d="M250.567 192.501L249.194 211.812C251.158 211.812 252.009 210.968 253.029 209.955L262.239 201.154L281.322 215.129C284.822 217.079 287.288 216.052 288.232 211.909L300.758 153.214L300.761 153.211C301.871 148.037 298.89 146.014 295.48 147.283L221.853 175.472C216.828 177.423 216.904 180.224 220.998 181.493L239.822 187.348L283.546 159.989C285.603 158.627 287.474 159.38 285.935 160.743L250.567 192.501Z" fill="black"/>
</g>
<g clip-path="url(#clip4)">
<path d="M237.262 48.8026L235.227 77.4206C238.138 77.4206 239.399 76.1701 240.911 74.6685L254.559 61.6253L282.839 82.3355C288.025 85.226 291.679 83.7038 293.078 77.5641L311.641 -9.41743L311.646 -9.42256C313.291 -17.0896 308.874 -20.0877 303.82 -18.2068L194.709 23.5671C187.263 26.4576 187.375 30.6088 193.443 32.4897L221.339 41.1663L286.134 0.622446C289.183 -1.3968 291.956 -0.279552 289.675 1.7397L237.262 48.8026Z" fill="black"/>
</g>
</g>
</g>
<defs>
<clipPath id="clip0">
<rect width="168" height="168" fill="white" transform="translate(453 10.0001)"/>
</clipPath>
<clipPath id="clip1">
<rect width="84" height="84" fill="white" transform="translate(351 104)"/>
</clipPath>
<clipPath id="clip2">
<rect width="55" height="55" fill="white" transform="translate(344 5)"/>
</clipPath>
<clipPath id="clip3">
<rect width="83" height="83" fill="white" transform="translate(218 140)"/>
</clipPath>
<clipPath id="clip4">
<rect width="123" height="123" fill="white" transform="translate(189 -29)"/>
</clipPath>
</defs>
</svg>
